<svg width="14" height="23" viewBox="0 0 14 23" fill="none" xmlns="http://www.w3.org/2000/svg">
<rect width="14" height="23" fill="#8E8E8E"/>
<g id="Tablet - 768" clip-path="url(#clip0_0_1)">
<rect width="768" height="7824" transform="translate(-656 -1200)" fill="white"/>
<g id="About">
<rect width="768" height="862" transform="translate(-656 -510)" fill="white"/>
<g id="Frame 3">
<path id="Arrow 1" d="M13.0607 12.5607C13.6464 11.9749 13.6464 11.0251 13.0607 10.4393L3.51472 0.893398C2.92893 0.307611 1.97919 0.307611 1.3934 0.893398C0.807611 1.47919 0.807611 2.42893 1.3934 3.01472L9.87868 11.5L1.3934 19.9853C0.807611 20.5711 0.807611 21.5208 1.3934 22.1066C1.97919 22.6924 2.92893 22.6924 3.51472 22.1066L13.0607 12.5607ZM11 13H12V10H11V13Z" fill="black"/>
</g>
</g>
</g>
<defs>
<clipPath id="clip0_0_1">
<rect width="768" height="7824" fill="white" transform="translate(-656 -1200)"/>
</clipPath>
</defs>
</svg>
